# xmcd
#
# Track frame offsets: 
#        150
#        23163
#        71776
#        103287
#        151956
#        208935
#
# Disc length: 3329 seconds
#
# Revision: 0
# Processed by: cddbd v1.5.2PL0 Copyright (c) Steve Scherf et al.
# Submitted via: ExactAudioCopy v1.3
#
DISCID=540cff06
DTITLE=Cyril Lance - Live From The Outskirts
DYEAR=2004
DGENRE=Electric Blues
TTITLE0=I Want The Real Thing
TTITLE1=I Went Down
TTITLE2=Remembering Jon
TTITLE3=Blues Ain t Nothing
TTITLE4=Same Thing
TTITLE5=Chank
EXTD=
EXTT0=
EXTT1=
EXTT2=
EXTT3=
EXTT4=
EXTT5=
PLAYORDER=
